<svg xmlns="http://www.w3.org/2000/svg" width="13" height="13" viewBox="0 0 13 13" fill="none">
  <path d="M10.0455 0H5.31818C4.62853 0.000895645 3.96092 0.24302 3.43102 0.684419C2.90112 1.12582 2.54233 1.73868 2.41682 2.41682C1.73868 2.54233 1.12582 2.90112 0.684419 3.43102C0.24302 3.96092 0.000895645 4.62853 0 5.31818V10.0455C0 10.4335 0.0764216 10.8176 0.224901 11.1761C0.373381 11.5346 0.591011 11.8603 0.865366 12.1346C1.41945 12.6887 2.17095 13 2.95455 13H7.68182C8.37147 12.9991 9.03908 12.757 9.56898 12.3156C10.0989 11.8742 10.4577 11.2613 10.5832 10.5832C11.2613 10.4577 11.8742 10.0989 12.3156 9.56898C12.757 9.03908 12.9991 8.37147 13 7.68182V2.95455C13 2.56655 12.9236 2.18235 12.7751 1.82389C12.6266 1.46543 12.409 1.13972 12.1346 0.865366C11.8603 0.591011 11.5346 0.373381 11.1761 0.224901C10.8176 0.0764216 10.4335 0 10.0455 0ZM7.68182 11.8182H2.95455C2.48439 11.8182 2.03349 11.6314 1.70104 11.299C1.36859 10.9665 1.18182 10.5156 1.18182 10.0455V5.31818C1.18406 4.95345 1.29875 4.59829 1.51025 4.30114C1.72175 4.00398 2.01976 3.7793 2.36364 3.65773V7.68182C2.36364 8.46541 2.67492 9.21691 3.229 9.771C3.78309 10.3251 4.53459 10.6364 5.31818 10.6364H9.33636C9.21513 10.9793 8.99135 11.2766 8.69537 11.4881C8.39939 11.6995 8.04554 11.8147 7.68182 11.8182ZM11.8182 7.68182C11.8182 8.15197 11.6314 8.60287 11.299 8.93533C10.9665 9.26778 10.5156 9.45455 10.0455 9.45455H5.31818C4.84803 9.45455 4.39713 9.26778 4.06467 8.93533C3.73222 8.60287 3.54545 8.15197 3.54545 7.68182V2.95455C3.54545 2.48439 3.73222 2.03349 4.06467 1.70104C4.39713 1.36859 4.84803 1.18182 5.31818 1.18182H10.0455C10.5156 1.18182 10.9665 1.36859 11.299 1.70104C11.6314 2.03349 11.8182 2.48439 11.8182 2.95455V7.68182Z" fill="white"/>
  <path d="M5.19956 4.55H7.79956C7.97195 4.55 8.13728 4.48152 8.25918 4.35962C8.38108 4.23772 8.44956 4.07239 8.44956 3.9C8.44956 3.72761 8.38108 3.56228 8.25918 3.44038C8.13728 3.31848 7.97195 3.25 7.79956 3.25H5.19956C5.02717 3.25 4.86184 3.31848 4.73994 3.44038C4.61804 3.56228 4.54956 3.72761 4.54956 3.9C4.54956 4.07239 4.61804 4.23772 4.73994 4.35962C4.86184 4.48152 5.02717 4.55 5.19956 4.55Z" fill="white"/>
  <path d="M9.81456 5.84979H5.13456C4.97941 5.84979 4.83061 5.91827 4.7209 6.04017C4.61119 6.16207 4.54956 6.3274 4.54956 6.49979C4.54956 6.67218 4.61119 6.83751 4.7209 6.95941C4.83061 7.08131 4.97941 7.14979 5.13456 7.14979H9.81456C9.96971 7.14979 10.1185 7.08131 10.2282 6.95941C10.3379 6.83751 10.3996 6.67218 10.3996 6.49979C10.3996 6.3274 10.3379 6.16207 10.2282 6.04017C10.1185 5.91827 9.96971 5.84979 9.81456 5.84979Z" fill="white"/>
</svg>