<svg width="19" height="10" viewBox="0 0 19 10" fill="none" xmlns="http://www.w3.org/2000/svg">
<path d="M19 0V7.14286C19 7.52174 18.8619 7.8851 18.6162 8.15301C18.3705 8.42092 18.0372 8.57143 17.6897 8.57143H11.1379V5.71429H14.4138C13.5887 4.51496 12.4385 3.62905 11.1259 3.18205C9.81338 2.73504 8.4051 2.74961 7.10058 3.22369C5.79605 3.69777 4.66141 4.60732 3.85738 5.8235C3.05335 7.03968 2.62069 8.50084 2.62069 10H0C0.00139618 7.92182 0.596636 5.89574 1.70298 4.20339C2.80932 2.51105 4.37179 1.23654 6.17321 0.557011C7.97462 -0.122515 9.92547 -0.173288 11.7546 0.41175C13.5837 0.996788 15.2002 2.18857 16.3793 3.82143V0H19Z" fill="#CCCCCC"/>
</svg>
