<svg width="15" height="13" viewBox="0 0 15 13" fill="none" xmlns="http://www.w3.org/2000/svg">
<path fill-rule="evenodd" clip-rule="evenodd" d="M14.9053 2.80767L12.1824 5.13656C12.1057 5.20277 12.0064 5.21426 11.9177 5.16832C11.8291 5.12237 11.7763 5.03184 11.7763 4.92645V3.71641H10.2627C9.19543 3.71641 8.27965 4.28462 7.7459 5.27844L5.7464 9.00104C4.88589 10.6029 3.40818 11.5204 1.68706 11.5204L0.374621 11.5197C0.167816 11.5197 0 11.3386 0 11.117V9.68606C0 9.46377 0.168459 9.28339 0.374621 9.28339H1.51358C2.58088 9.28339 3.49666 8.71519 4.03041 7.72136L6.02991 3.99877C6.89043 2.39687 8.36814 1.47945 10.0893 1.47945H11.7763V0.269408C11.7763 0.164011 11.8291 0.0734803 11.9177 0.0275424C12.0063 -0.0183955 12.105 -0.00623823 12.1823 0.0592959L14.9053 2.38819C14.9669 2.44089 14.9996 2.51385 14.9996 2.5983C14.9996 2.68275 14.9669 2.75572 14.9053 2.80841L14.9053 2.80767ZM1.68715 1.47872H0.374719C0.167914 1.47872 9.81366e-05 1.65979 9.81366e-05 1.88139V3.31235C9.81366e-05 3.53464 0.168558 3.71501 0.374719 3.71501H1.51367C2.58098 3.71501 3.49676 4.28322 4.03051 5.27704L4.15371 5.50675L5.23107 3.50077C5.26187 3.44402 5.29329 3.38727 5.32535 3.33187C4.44347 2.14345 3.15367 1.47723 1.68728 1.47723L1.68715 1.47872ZM6.45162 9.66591C7.3335 10.8543 8.6233 11.5206 10.0897 11.5206H11.7767V12.7306C11.7767 12.836 11.8295 12.9265 11.9181 12.9725C12.0068 13.0184 12.1054 13.0062 12.1828 12.9407L14.9057 10.6118C14.9673 10.5591 15 10.4861 15 10.4017C15 10.3173 14.9673 10.2443 14.9057 10.1916L12.1828 7.86269C12.1061 7.79648 12.0067 7.785 11.9181 7.83094C11.8295 7.87688 11.7767 7.96742 11.7767 8.07281V9.28285H10.2631C9.19582 9.28285 8.28004 8.71464 7.74629 7.72082L7.62309 7.49111L6.54573 9.49709C6.51493 9.55384 6.4835 9.61059 6.45145 9.66599L6.45162 9.66591Z" fill="white"/>
</svg>
