<svg xmlns="http://www.w3.org/2000/svg" width="19" height="10" viewBox="0 0 19 10" fill="none">
  <path d="M0 0V7.14286C0 7.52174 0.138054 7.8851 0.383791 8.15301C0.629529 8.42092 0.96282 8.57143 1.31034 8.57143H7.86207V5.71429H4.58621C5.41126 4.51496 6.56153 3.62905 7.87407 3.18205C9.18662 2.73504 10.5949 2.74961 11.8994 3.22369C13.2039 3.69777 14.3386 4.60732 15.1426 5.8235C15.9467 7.03968 16.3793 8.50084 16.3793 10H19C18.9986 7.92182 18.4034 5.89574 17.297 4.20339C16.1907 2.51105 14.6282 1.23654 12.8268 0.557011C11.0254 -0.122515 9.07453 -0.173288 7.24542 0.41175C5.41632 0.996788 3.79984 2.18857 2.62069 3.82143V0H0Z" fill="#CCCCCC"/>
</svg>